<?xml version="1.0" encoding="UTF-8" standalone="no"?>
<svg
   xmlns:dc="http://purl.org/dc/elements/1.1/"
   xmlns:cc="http://creativecommons.org/ns#"
   xmlns:rdf="http://www.w3.org/1999/02/22-rdf-syntax-ns#"
   xmlns:svg="http://www.w3.org/2000/svg"
   xmlns="http://www.w3.org/2000/svg"
   xmlns:sodipodi="http://sodipodi.sourceforge.net/DTD/sodipodi-0.dtd"
   xmlns:inkscape="http://www.inkscape.org/namespaces/inkscape"
   enable-background="new 0 0 48 48"
   height="48px"
   id="Layer_1"
   version="1.1"
   viewBox="0 0 48 48"
   width="48px"
   xml:space="preserve"
   inkscape:version="0.91 r13725"
   sodipodi:docname="1461465209_14.News.svg"><metadata
     id="metadata9"><rdf:RDF><cc:Work
         rdf:about=""><dc:format>image/svg+xml</dc:format><dc:type
           rdf:resource="http://purl.org/dc/dcmitype/StillImage" /></cc:Work></rdf:RDF></metadata><defs
     id="defs7" /><sodipodi:namedview
     pagecolor="#ffffff"
     bordercolor="#666666"
     borderopacity="1"
     objecttolerance="10"
     gridtolerance="10"
     guidetolerance="10"
     inkscape:pageopacity="0"
     inkscape:pageshadow="2"
     inkscape:window-width="1920"
     inkscape:window-height="1017"
     id="namedview5"
     showgrid="false"
     inkscape:zoom="9.8333333"
     inkscape:cx="25.700605"
     inkscape:cy="21.449285"
     inkscape:window-x="0"
     inkscape:window-y="0"
     inkscape:window-maximized="1"
     inkscape:current-layer="Layer_1" /><path
     d="m 41,47 0,0 -34,0 0,0 C 4.238,47 2,44.762 2,42 L 2,2 C 2,1.448 2.447,1 3,1 l 0,0 34,0 0,0 c 0.414,0 0.77,0.252 0.922,0.611 C 37.972,1.73 38,1.862 38,2 l 0,0 0,14 7,0 c 0.553,0 1,0.448 1,1 l 0,25 c 0,2.762 -2.238,5 -5,5 z M 36,42 36,3 4,3 l 0,39 0,0 0,0 c 0,1.657 1.344,3 3,3 l 30.022,0 C 36.39,44.162 36,43.131 36,42 Z m 8,-24 -6,0 0,24 c 0,1.657 1.343,3 3,3 1.657,0 3,-1.343 3,-3 z M 7,40 c 0,-0.552 0.447,-1 1,-1 l 9,0 c 0.553,0 1,0.448 1,1 0,0.553 -0.447,1 -1,1 L 8,41 C 7.447,41 7,40.553 7,40 Z m 16,-11 9,0 c 0.553,0 1,0.448 1,1 0,0.553 -0.447,1 -1,1 l -9,0 c -0.553,0 -1,-0.447 -1,-1 0,-0.552 0.447,-1 1,-1 z m 0,5 9,0 c 0.553,0 1,0.448 1,1 0,0.553 -0.447,1 -1,1 l -9,0 c -0.553,0 -1,-0.447 -1,-1 0,-0.552 0.447,-1 1,-1 z m 0,5 9,0 c 0.553,0 1,0.448 1,1 0,0.553 -0.447,1 -1,1 l -9,0 c -0.553,0 -1,-0.447 -1,-1 0,-0.552 0.447,-1 1,-1 z M 27,10 13,10 C 12.447,10 12,9.552 12,9 12,8.448 12.447,8 13,8 l 14,0 c 0.553,0 1,0.448 1,1 0,0.552 -0.447,1 -1,1 z m -19,24 9,0 c 0.553,0 1,0.448 1,1 0,0.553 -0.447,1 -1,1 L 8,36 C 7.447,36 7,35.553 7,35 7,34.448 7.447,34 8,34 Z m 10,-4 c 0,0.553 -0.447,1 -1,1 L 8,31 C 7.447,31 7,30.553 7,30 7,29.448 7.447,29 8,29 l 9,0 c 0.553,0 1,0.448 1,1 z"
     id="path3"
     inkscape:connector-curvature="0"
     style="clip-rule:evenodd;fill-rule:evenodd"
     sodipodi:nodetypes="ccccssccccccccssscscccccscsccssscsssssssssssssssssssssssssssssssssssssssssssssssss" /><path
     sodipodi:nodetypes="ssssssssssssssssssssssssssss"
     style="clip-rule:evenodd;fill-rule:evenodd"
     inkscape:connector-curvature="0"
     id="path4169"
     d="m 7,24.745763 c 0,-0.552 0.447,-1 1,-1 l 9,0 c 0.553,0 1,0.448 1,1 0,0.553 -0.447,1 -1,1 l -9,0 c -0.553,0 -1,-0.447 -1,-1 z m 16,-6 9,0 c 0.553,0 1,0.448 1,1 0,0.553 -0.447,1 -1,1 l -9,0 c -0.553,0 -1,-0.447 -1,-1 0,-0.552 0.447,-1 1,-1 z m 0,5 9,0 c 0.553,0 1,0.448 1,1 0,0.553 -0.447,1 -1,1 l -9,0 c -0.553,0 -1,-0.447 -1,-1 0,-0.552 0.447,-1 1,-1 z m -15,-5 9,0 c 0.553,0 1,0.448 1,1 0,0.553 -0.447,1 -1,1 l -9,0 c -0.553,0 -1,-0.447 -1,-1 0,-0.552 0.447,-1 1,-1 z" /></svg>