<?xml version="1.0" encoding="UTF-8" standalone="no"?>
<!-- Created with Inkscape (http://www.inkscape.org/) -->

<svg
   xmlns:dc="http://purl.org/dc/elements/1.1/"
   xmlns:cc="http://creativecommons.org/ns#"
   xmlns:rdf="http://www.w3.org/1999/02/22-rdf-syntax-ns#"
   xmlns:svg="http://www.w3.org/2000/svg"
   xmlns="http://www.w3.org/2000/svg"
   xmlns:sodipodi="http://sodipodi.sourceforge.net/DTD/sodipodi-0.dtd"
   xmlns:inkscape="http://www.inkscape.org/namespaces/inkscape"
   id="svg2"
   version="1.1"
   inkscape:version="0.91 r"
   width="35.960117"
   height="61.818581"
   viewBox="0 0 35.960117 61.818581"
   sodipodi:docname="pin_cluster.svg"
   inkscape:export-filename="/home/rok/CordovaProjects/Bonar/src/img/pin-cluster.png"
   inkscape:export-xdpi="90.295708"
   inkscape:export-ydpi="90.295708">
  <metadata
     id="metadata8">
    <rdf:RDF>
      <cc:Work
         rdf:about="">
        <dc:format>image/svg+xml</dc:format>
        <dc:type
           rdf:resource="http://purl.org/dc/dcmitype/StillImage" />
        <dc:title></dc:title>
      </cc:Work>
    </rdf:RDF>
  </metadata>
  <defs
     id="defs6" />
  <sodipodi:namedview
     pagecolor="#ffffff"
     bordercolor="#666666"
     borderopacity="1"
     objecttolerance="10"
     gridtolerance="10"
     guidetolerance="10"
     inkscape:pageopacity="0"
     inkscape:pageshadow="2"
     inkscape:window-width="1920"
     inkscape:window-height="1028"
     id="namedview4"
     showgrid="false"
     fit-margin-top="0"
     fit-margin-left="0"
     fit-margin-right="0"
     fit-margin-bottom="0"
     inkscape:zoom="8.6130168"
     inkscape:cx="-16.096312"
     inkscape:cy="37.238383"
     inkscape:window-x="0"
     inkscape:window-y="0"
     inkscape:window-maximized="1"
     inkscape:current-layer="layer1" />
  <g
     inkscape:groupmode="layer"
     id="layer2"
     inkscape:label="Back"
     transform="translate(-0.07387579,-16.901115)" />
  <g
     inkscape:groupmode="layer"
     id="layer1"
     inkscape:label="Front"
     transform="translate(-0.07387579,-16.901115)">
    <path
       id="path4145-0"
       style="fill:#e86500;fill-opacity:1;stroke:#000000;stroke-width:1.34066212;stroke-miterlimit:4;stroke-dasharray:none;stroke-dashoffset:0;stroke-opacity:1"
       d="m 19.743406,37.395385 c 4.122589,-3.869041 1.360634,-11.201408 -4.219345,-11.201408 -3.764352,0 -6.0691677,2.468128 -6.0691677,6.49921 0,5.576327 6.2926707,8.45229 10.2885127,4.702198 z M 9.5663656,58.530055 C 3.7232487,45.034034 0.71761184,36.008229 0.73535024,32.010877 0.75282944,28.071484 3.7077055,22.703128 7.2031392,20.260333 14.521236,15.146055 24.07495,17.532947 28.465868,25.572597 c 2.393119,4.381732 2.351555,8.042974 -0.178894,15.758288 -3.527226,10.754478 -11.405238,28.128697 -12.75443,28.128697 -0.786564,0 -2.950537,-3.964212 -5.9661784,-10.929527 z"
       inkscape:connector-curvature="0" />
    <path
       inkscape:connector-curvature="0"
       d="m 24.892349,40.313489 c 4.122589,-3.869041 1.360633,-11.201407 -4.219346,-11.201407 -3.764352,0 -6.069168,2.468128 -6.069168,6.499209 0,5.576327 6.292671,8.45229 10.288514,4.702198 z M 14.715308,61.448159 C 8.8721906,47.952138 5.8665537,38.926333 5.8842921,34.928981 c 0.017479,-3.939393 2.9723553,-9.307748 6.4677889,-11.750544 7.318097,-5.114278 16.871811,-2.727386 21.26273,5.312264 2.393118,4.381732 2.351554,8.042974 -0.178895,15.758288 -3.527225,10.754478 -11.405238,28.128697 -12.754429,28.128697 -0.786565,0 -2.950538,-3.964212 -5.966179,-10.929527 z"
       style="fill:#ffbb73;fill-opacity:1;stroke:#000000;stroke-width:1.34066212;stroke-miterlimit:4;stroke-dasharray:none;stroke-dashoffset:0;stroke-opacity:1"
       id="path4313"
       inkscape:export-xdpi="71"
       inkscape:export-ydpi="71" />
    <path
       style="fill:#ffd5a5;fill-opacity:1;stroke:#000000;stroke-width:1.38998961;stroke-miterlimit:4;stroke-dasharray:none;stroke-dashoffset:0;stroke-opacity:1"
       d="M 11.73576,66.788913 C 5.6208476,52.926318 2.4754024,43.655356 2.4939654,39.549429 2.5122619,35.503036 5.6045813,29.988867 9.2626068,27.479721 16.921108,22.226531 26.919216,24.678255 31.51438,32.936274 c 2.504435,4.500749 2.460938,8.261436 -0.187216,16.186311 -3.691296,11.046588 -11.935757,28.892721 -13.347707,28.892721 -0.823152,0 -3.087783,-4.071888 -6.243697,-11.226393 z"
       id="path4145" />
    <path
       style="fill:#ffd5a5;fill-opacity:1;stroke:#000000;stroke-width:1.38998961;stroke-miterlimit:4;stroke-dasharray:none;stroke-dashoffset:0;stroke-opacity:1"
       d="m 22.386189,45.08019 c 4.314353,-3.974131 1.423924,-11.505657 -4.41561,-11.505657 -3.939452,0 -6.351477,2.535167 -6.351477,6.675739 0,5.72779 6.585376,8.681869 10.767087,4.829918 z"
       id="path4149" />
  </g>
</svg>
