<?xml version="1.0" encoding="UTF-8" standalone="no"?>
<!-- Created with Inkscape (http://www.inkscape.org/) -->

<svg
   xmlns:dc="http://purl.org/dc/elements/1.1/"
   xmlns:cc="http://creativecommons.org/ns#"
   xmlns:rdf="http://www.w3.org/1999/02/22-rdf-syntax-ns#"
   xmlns:svg="http://www.w3.org/2000/svg"
   xmlns="http://www.w3.org/2000/svg"
   xmlns:sodipodi="http://sodipodi.sourceforge.net/DTD/sodipodi-0.dtd"
   xmlns:inkscape="http://www.inkscape.org/namespaces/inkscape"
   id="svg2"
   version="1.1"
   inkscape:version="0.91 r13725"
   width="46.797844"
   height="78.000557"
   viewBox="0 0 46.797844 78.000557"
   sodipodi:docname="pin_cluster.svg"
   inkscape:export-filename="/home/ozbolt/BitBucket/bonar_cordova/src/img/pin-cluster.png"
   inkscape:export-xdpi="71.720161"
   inkscape:export-ydpi="71.720161">
  <metadata
     id="metadata8">
    <rdf:RDF>
      <cc:Work
         rdf:about="">
        <dc:format>image/svg+xml</dc:format>
        <dc:type
           rdf:resource="http://purl.org/dc/dcmitype/StillImage" />
        <dc:title />
      </cc:Work>
    </rdf:RDF>
  </metadata>
  <defs
     id="defs6" />
  <sodipodi:namedview
     pagecolor="#ffffff"
     bordercolor="#666666"
     borderopacity="1"
     objecttolerance="10"
     gridtolerance="10"
     guidetolerance="10"
     inkscape:pageopacity="0"
     inkscape:pageshadow="2"
     inkscape:window-width="1920"
     inkscape:window-height="1017"
     id="namedview4"
     showgrid="false"
     fit-margin-top="0"
     fit-margin-left="0"
     fit-margin-right="0"
     fit-margin-bottom="0"
     inkscape:zoom="4.3065084"
     inkscape:cx="-39.435889"
     inkscape:cy="44.693815"
     inkscape:window-x="0"
     inkscape:window-y="0"
     inkscape:window-maximized="1"
     inkscape:current-layer="layer2" />
  <g
     inkscape:groupmode="layer"
     id="layer2"
     inkscape:label="Back">
    <path
       id="path4145-0"
       style="fill:#e86500;fill-opacity:1;stroke:#000000;stroke-width:1.72999024;stroke-miterlimit:4;stroke-dasharray:none;stroke-dashoffset:0;stroke-opacity:1"
       d="m 25.778538,26.083421 c 5.391688,-4.926032 1.779491,-14.261543 -5.51823,-14.261543 -4.923171,0 -7.937502,3.142401 -7.937502,8.274742 0,7.099735 8.229808,10.761388 13.455732,5.986801 z M 12.468594,52.991915 C 4.8267304,35.808889 0.8958374,24.317305 0.9190364,19.227908 0.9418964,14.212304 4.8064024,7.3773567 9.3778714,4.2672087 18.948773,-2.2442496 31.443505,0.79472276 37.186125,11.030741 c 3.129817,5.578787 3.075458,10.240251 -0.233965,20.063328 -4.613048,13.692516 -14.91623,35.813234 -16.680757,35.813234 -1.028701,0 -3.858832,-5.047204 -7.802809,-13.915388 z"
       inkscape:connector-curvature="0" />
    <path
       inkscape:connector-curvature="0"
       d="m 32.512532,29.798728 c 5.391688,-4.926032 1.779491,-14.261543 -5.51823,-14.261543 -4.923171,0 -7.937502,3.142401 -7.937502,8.274742 0,7.099735 8.229808,10.761388 13.455732,5.986801 z M 19.202588,56.707222 C 11.560724,39.524196 7.629831,28.032612 7.65303,22.943215 7.67589,17.927611 11.540396,11.092664 16.111865,7.9825155 25.682767,1.4710572 38.177499,4.5100296 43.920119,14.746048 c 3.129817,5.578787 3.075458,10.240251 -0.233965,20.063328 -4.613048,13.692516 -14.91623,35.813234 -16.680757,35.813234 -1.028701,0 -3.858832,-5.047204 -7.802809,-13.915388 z"
       style="fill:#ffbb73;fill-opacity:1;stroke:#000000;stroke-width:1.72999024;stroke-miterlimit:4;stroke-dasharray:none;stroke-dashoffset:0;stroke-opacity:1"
       id="path4313"
       inkscape:export-xdpi="71"
       inkscape:export-ydpi="71" />
  </g>
  <g
     inkscape:groupmode="layer"
     id="layer1"
     inkscape:label="Front">
    <path
       id="path4145"
       style="fill:#ffd5a5;fill-opacity:1;stroke:#000000;stroke-width:1.7936424;stroke-miterlimit:4;stroke-dasharray:none;stroke-dashoffset:0;stroke-opacity:1"
       d="m 29.234876,35.867654 c 5.642484,-5.059832 1.862264,-14.648911 -5.774913,-14.648911 -5.152174,0 -8.306718,3.227754 -8.306718,8.499498 0,7.292576 8.612621,11.053686 14.081631,6.149413 z M 15.305815,63.507028 C 7.3084867,45.857282 3.1947467,34.053567 3.2190242,28.825933 3.2429531,23.674097 7.2872129,16.653501 12.071326,13.458876 22.087422,6.7705562 35.163351,9.8920718 41.173091,20.406117 c 3.275401,5.730317 3.218514,10.518394 -0.244848,20.608282 -4.827626,14.064428 -15.610064,36.785983 -17.456669,36.785983 -1.076551,0 -4.038327,-5.184295 -8.165759,-14.293354 z"
       inkscape:connector-curvature="0" />
  </g>
</svg>
